HIERARCHY
ROOT HipCenter
{
    OFFSET 0.0 0.0 -0.0
    CHANNELS 6 Xposition Yposition Zposition Zrotation Xrotation Yrotation
    JOINT Spine
    {
        OFFSET 0.0 12.037975311279297 0.0
        CHANNELS 3 Zrotation Xrotation Yrotation
        JOINT ShoulderCenter
        {
            OFFSET 0.0 31.320415496826172 0.0
            CHANNELS 3 Zrotation Xrotation Yrotation
            JOINT LeftShoulder
            {
                OFFSET 17.0072021484375 0.0 0.0
                CHANNELS 3 Zrotation Xrotation Yrotation
                JOINT LeftElbow
                {
                    OFFSET 30.428159713745117 0.0 0.0
                    CHANNELS 3 Zrotation Xrotation Yrotation
                    JOINT LeftWrist
                    {
                        OFFSET 26.31372833251953 0.0 0.0
                        CHANNELS 3 Zrotation Xrotation Yrotation
                        JOINT LeftHand
                        {
                            OFFSET 2.592339515686035 0.0 0.0
                            CHANNELS 3 Zrotation Xrotation Yrotation
                            End Site
                            {
                                OFFSET 1.036935806274414 0.0 0.0
                            }
                        }
                    }
                }
            }
            JOINT RightShoulder
            {
                OFFSET -17.0072021484375 0.0 0.0
                CHANNELS 3 Zrotation Xrotation Yrotation
                JOINT RightElbow
                {
                    OFFSET -30.428159713745117 0.0 0.0
                    CHANNELS 3 Zrotation Xrotation Yrotation
                    JOINT RightWrist
                    {
                        OFFSET -26.31372833251953 0.0 0.0
                        CHANNELS 3 Zrotation Xrotation Yrotation
                        JOINT RightHand
                        {
                            OFFSET -2.592339515686035 0.0 0.0
                            CHANNELS 3 Zrotation Xrotation Yrotation
                            End Site
                            {
                                OFFSET -1.036935806274414 0.0 0.0
                            }
                        }
                    }
                }
            }
            End Site
            {
                OFFSET 0.0 12.528166770935059 0.0
            }
        }
    }
    JOINT LeftHip
    {
        OFFSET 16.76260757446289 0.0 0.0
        CHANNELS 3 Zrotation Xrotation Yrotation
        JOINT LeftKnee
        {
            OFFSET 0.0 -34.99705505371094 0.0
            CHANNELS 3 Zrotation Xrotation Yrotation
            JOINT LeftAnkle
            {
                OFFSET 0.0 -41.176612854003906 0.0
                CHANNELS 3 Zrotation Xrotation Yrotation
                JOINT LeftFoot
                {
                    OFFSET 0.0 -12.279211044311523 0.0
                    CHANNELS 3 Zrotation Xrotation Yrotation
                    End Site
                    {
                        OFFSET 0.0 0.0 4.911684513092041
                    }
                }
            }
        }
    }
    JOINT RightHip
    {
        OFFSET -16.76260757446289 0.0 0.0
        CHANNELS 3 Zrotation Xrotation Yrotation
        JOINT RightKnee
        {
            OFFSET 0.0 -34.99705505371094 0.0
            CHANNELS 3 Zrotation Xrotation Yrotation
            JOINT RightAnkle
            {
                OFFSET 0.0 -41.176612854003906 0.0
                CHANNELS 3 Zrotation Xrotation Yrotation
                JOINT RightFoot
                {
                    OFFSET 0.0 -12.279211044311523 0.0
                    CHANNELS 3 Zrotation Xrotation Yrotation
                    End Site
                    {
                        OFFSET 0.0 0.0 4.911684513092041
                    }
                }
            }
        }
    }
}
MOTION
Frames: 4
Frame Time: 0.03333333333333333
58.099998474121094 -19.100000381469727 217.8000030517578 -7.657719287225033 3.811846580212678 -174.85183237006208 -11.953627855811611 3.353472976654986 1.3631227665039152 -1.8456619096965845e-07 -2.196908667674538e-07 16.699558555844376 108.515640684787 -24.272066978989063 -174.64312822012425 8.466187101935463e-08 8.64372038702984e-07 27.13298200798233 -179.9999966626196 -67.77463517225962 -150.42479140418686 -6.361109362927035e-15 -2.648343778830095e-31 4.770832022195277e-15 -94.25181020803774 -21.09751610609153 -178.19072924788134 2.1408572154786376e-06 -1.4443848216212883e-06 -29.76008625201325 179.99998846519506 -73.51854985109327 154.2547242359165 -6.3611093629270335e-15 -4.413906298050159e-31 7.951386703658792e-15 -17.224664159322504 2.9936132860499587 -15.831929568137657 -1.9642428826205531 6.276176949546677 -0.5885474245916875 44.60156052983675 -69.4642331905022 48.07518253473868 0.0 0.0 -7.951386703658792e-16 -2.4326045342825484 -26.5941954796315 -7.901422182405645 -48.46418331698822 53.574328405306474 101.65263700871954 -96.64710023639412 -7.50450395944858 -171.88955520976876 3.531125038440127e-31 -6.3611093629270335e-15 6.3611093629270335e-15
58.099998474121094 -19.100000381469727 217.8000030517578 -7.657720536097772 4.286603749996946 -174.93522928487909 -11.920774950092632 3.6221968402093547 1.4525999104768699 1.680229332620173e-07 -4.7816303345003e-08 16.344914405580518 108.17918282578097 -23.21732384546432 -174.8842433584456 1.131297948031268e-06 2.8882656892452307e-06 26.81984817098643 -179.99999643026362 -67.30485032163301 -152.43295835803377 6.361109362927032e-15 -6.361109362927032e-15 3.1805546814635164e-15 -94.14935297651758 -21.241562428685835 -178.31855435129984 -2.4436334953023576e-06 -3.316347773485621e-06 -29.62282243717163 179.99997410139375 -73.4295974522458 151.7392560305873 -6.361109362927033e-15 -4.413906298050159e-31 7.95138670365879e-15 -17.19470808409571 3.4206916608328393 -15.279454931811651 -1.762610556877864 6.180100555264577 -0.6010553652978213 42.45702620742269 -69.89590448002242 46.19456091885614 -4.4139062980501586e-32 6.3611093629270335e-15 7.951386703658792e-16 -2.177803635883161 -26.266546664647326 -8.00002073248556 -48.87900152317929 53.40519011728664 101.30339906827227 -96.7887835024523 -8.279907755651584 -171.17501658037673 6.3611093629270335e-15 -6.3611093629270335e-15 1.5902773407317588e-15
58.20000076293945 -19.100000381469727 217.89999389648438 -6.709843902796415 3.819779467115949 -175.10653185062716 -10.8647363509461 2.691810012312614 1.0744623244259066 2.991666005946239e-07 -1.1371097925463117e-07 15.945738266222797 107.65316035695064 -22.266953206544244 -175.82190794092904 3.368721991287212e-06 1.0238824281572799e-06 26.998176309067823 179.99999441138496 -67.71343515804116 -152.43296675420757 0.0 -6.361109362927035e-15 0.0 -94.19342856824575 -21.903600461948557 -178.14190727431875 -3.854168263149642e-06 1.2181454666426047e-06 -29.705867625925602 -179.99999407200988 -71.08228227494622 152.7073816855719 6.3611093629270335e-15 3.531125038440127e-31 6.3611093629270335e-15 -16.125212733610944 2.85523061954811 -15.6824121287658 -1.9605924862291273 6.1362144737488045 -0.5933023073791759 44.22171902861555 -69.39641766648737 47.84653579218887 7.951386703658792e-16 5.517382872562698e-33 7.951386703658792e-16 -1.2324275103845155 -26.81649701176552 -7.962429740256999 -48.838937138029095 53.25477860864515 101.63324448665901 -96.66461830498623 -7.9481049403725725 -171.5192284704773 0.0 0.0 0.0
58.20000076293945 -19.100000381469727 217.89999389648438 -6.70984396343511 4.295590671344205 -175.43697787229127 -10.832399907634375 3.1006309645379484 1.2329820601007415 -4.057451861219935e-07 -1.3571334487045579e-07 15.647409409531528 107.35257631837817 -21.409307556029677 -176.07770770965715 -1.516147270856461e-06 2.434568782428514e-07 26.80006195293605 179.9999945760917 -68.44834377014305 -152.5003188019765 0.0 0.0 -3.1805546814635164e-15 -94.38897644777003 -22.0903368749038 -178.11903762415372 9.944379076392088e-08 1.897337696826514e-06 -29.825799106209242 179.99999694363058 -73.01173839292585 154.7598964739975 0.0 0.0 0.0 -16.119540477483532 3.5495983406208476 -15.273456676920404 -1.9168627962408458 5.508904542908106 -0.5277536284422172 43.64178518983127 -69.1936523553757 47.17718879885758 7.951386703658792e-16 5.517382872562698e-33 7.951386703658792e-16 -1.0371104269777 -26.485399454485936 -8.157952887367028 -49.188748659823005 52.964030463295295 101.58846130313599 -97.05068439051813 -8.372391318699183 -171.28302777593186 0.0 0.0 -1.5902773407317584e-15
